<?xml version="1.0" encoding="UTF-8" standalone="no"?>
<svg width="100%" height="100%" viewBox="0 0 897 897" version="1.1" xmlns="http://www.w3.org/2000/svg" style="fill-rule:evenodd;clip-rule:evenodd;stroke-linejoin:round;stroke-miterlimit:2;">
    <g transform="matrix(1.92473,1.98974e-16,-1.98974e-16,-1.92473,-90.4766,885.523)">
        <path d="M159.94,78.704L407.298,239.738L202.45,159.177L159.94,78.704Z" style="fill:rgb(80,227,194);"/>
    </g>
    <g transform="matrix(-1.50109,0.979144,-0.979144,-1.50109,1380.88,880.995)">
        <path d="M423.832,342.436L483.487,409.877L200,409.877L423.832,342.436Z" style="fill:rgb(173,224,238);"/>
    </g>
    <g transform="matrix(-0.214098,1.77937,-1.77937,-0.214098,998.484,-80.4552)">
        <path d="M322.446,323.238L492.333,388.025L225.599,387.523L322.446,323.238Z" style="fill:rgb(0,101,163);"/>
    </g>
    <g transform="matrix(1.10061,0,0,1.00498,-18.309,-3.48473)">
        <path d="M214.131,117.043L646.709,425.456L288.668,579.663L362.896,425.456L214.131,117.043Z" style="fill:rgb(211,150,237);"/>
    </g>
</svg>